<svg class="square-2 margin-right-1" version="1.1" xmlns="http://www.w3.org/2000/svg" xmlns:xlink="http://www.w3.org/1999/xlink" x="0px" y="0px" width="16px" height="16px" viewBox="0 0 16 16" style="enable-background:new 0 0 16 16;" xml:space="preserve"><g> <path d="M8,0c4.4,0,7.9,3.5,8,7.9c0.1,4.5-3.5,8.1-7.9,8.1c-4.5,0-8-3.6-8.1-7.9C-0.1,3.6,3.6,0,8,0z M0.8,8 c0,4,3.2,7.2,7.2,7.2c4,0,7.2-3.2,7.2-7.2c0-4-3.3-7.2-7.2-7.2C4,0.8,0.8,4,0.8,8z"></path><path d="M11.2,4c0,2.7,0,5.3,0,8c-2.1,0-4.3,0-6.4,0c0,0,0,0,0-0.1c0-1.8,0-3.6,0-5.4c0-0.8,0-1.6,0-2.4 C4.8,4,4.8,4,4.9,4C6.2,4,7.6,4,9,4C9.7,4,10.4,4,11.2,4C11.1,4,11.2,4,11.2,4z M9.6,5.6c-1.1,0-2.1,0-3.2,0c0,0,0,0,0,0.1 c0,0.5,0,1,0,1.5c0,0.1,0,0.1,0.1,0.1c1,0,2,0,3.1,0c0,0,0.1,0,0.1-0.1C9.6,6.6,9.6,6.2,9.6,5.6C9.6,5.6,9.6,5.6,9.6,5.6z M6.4,8.8C6.4,8.8,6.4,8.8,6.4,8.8c1.1,0,2.1,0,3.1,0c0.1,0,0.1,0,0.1-0.1c0-0.2,0-0.4,0-0.7c0,0,0,0,0-0.1C8.5,8,7.5,8,6.4,8 C6.4,8.3,6.4,8.5,6.4,8.8z M8.8,10.4C8.8,10.4,8.8,10.4,8.8,10.4c0-0.3,0-0.5,0-0.7c0-0.1,0-0.1-0.1-0.1c-0.5,0-1,0-1.5,0 c-0.3,0-0.5,0-0.8,0c0,0,0,0-0.1,0c0,0.3,0,0.5,0,0.8C7.2,10.4,8,10.4,8.8,10.4z"></path></g></svg>